<svg xmlns="http://www.w3.org/2000/svg" viewBox="0 0 108 108"><defs><style>.cls-1{fill:none;stroke:#5775e0;stroke-miterlimit:10;stroke-width:2px;}</style></defs><title>FI</title><g id="Layer_2" data-name="Layer 2"><g id="Layer_1-2" data-name="Layer 1"><path class="cls-1" d="M107,51v6a2.72,2.72,0,0,0-.11.38c-.36,2.62-.56,5.28-1.12,7.85A51.91,51.91,0,0,1,89.26,93.56,52.09,52.09,0,0,1,58.51,106.8c-.52,0-1,.13-1.54.2h-6a1.43,1.43,0,0,0-.38-.1,53.35,53.35,0,0,1-8-1.13A52.2,52.2,0,0,1,14.45,89.26,52,52,0,0,1,1.2,58.52c-.05-.56-.13-1.11-.2-1.66V50.93a1.43,1.43,0,0,0,.1-.38,53.35,53.35,0,0,1,1.13-8A52.2,52.2,0,0,1,18.74,14.45,52,52,0,0,1,49.48,1.2L51.24,1H57a2.36,2.36,0,0,0,.38.1,52.79,52.79,0,0,1,36.2,17.64A52,52,0,0,1,106.8,49.49C106.85,50,106.93,50.52,107,51ZM63.48,21.25l-.37,0h-10a19.86,19.86,0,0,0-7.36,1.29,14.15,14.15,0,0,0-9.07,10,21.19,21.19,0,0,0-.47,5.73c0,.54,0,1.09,0,1.68h-7.9V51.28h7.93V82.06h14V51.28h.62c4,0,8,0,12,0,.53,0,.68.11.68.67q0,14.73,0,29.46v.66H77.38V39.87H50.2c0-1.15-.08-2.23,0-3.3a4,4,0,0,1,2.3-3.33,6.23,6.23,0,0,1,2.87-.63h7.53l.56,0Z"/></g></g></svg>